<svg width="18" height="21" viewBox="0 0 18 21" fill="none" xmlns="http://www.w3.org/2000/svg">
<g clip-path="url(#clip0)">
<path d="M7.65402 2.74396L8.54598 1.83341C8.92366 1.44786 9.53438 1.44786 9.90804 1.83341L17.7188 9.80275C18.0964 10.1883 18.0964 10.8117 17.7188 11.1932L9.90804 19.1666C9.53036 19.5522 8.91964 19.5522 8.54598 19.1666L7.65402 18.2561C7.27232 17.8664 7.28036 17.2307 7.67009 16.8492L12.5116 12.1406H0.964286C0.429911 12.1406 0 11.7018 0 11.1563V9.84377C0 9.29826 0.429911 8.85939 0.964286 8.85939H12.5116L7.67009 4.15079C7.27634 3.76935 7.2683 3.13361 7.65402 2.74396Z" fill="#225FBB"/>
</g>
<defs>
<clipPath id="clip0">
<rect width="18" height="21" fill="white"/>
</clipPath>
</defs>
</svg>
