<svg width="94" height="94" viewBox="0 0 94 94" fill="none" xmlns="http://www.w3.org/2000/svg">
<g clip-path="url(#clip0)">
<path d="M82.4179 93.1578C83.3634 92.5275 84.624 92.3699 85.4119 91.582C86.0422 91.1093 86.0422 90.1638 85.4119 89.691C84.7816 89.3759 83.9937 89.691 83.3634 89.8486C82.8906 90.0062 82.733 90.3213 82.733 90.7941C82.2603 91.1093 81.7875 91.4244 81.4724 91.8972C80.8421 92.5275 81.63 93.7881 82.4179 93.1578Z" fill="#4F3333"/>
<path d="M88.721 83.8605C89.6665 83.0726 90.612 82.1271 91.3999 81.1816C92.1878 80.2361 93.1333 78.9755 93.1333 77.8724C93.1333 77.2421 92.3454 76.9269 92.0302 77.3997C91.2423 78.1876 91.0848 79.4482 90.4544 80.3937C89.8241 81.4968 89.0362 82.2847 88.0907 83.2302C87.7756 83.7029 88.4059 84.1756 88.721 83.8605Z" fill="#4F3333"/>
<path d="M92.503 69.6782C92.8181 70.9389 92.9757 72.3571 92.9757 73.7753C92.9757 74.2481 93.7636 74.2481 93.7636 73.7753C93.7636 71.8844 94.7091 68.1024 92.8181 66.8418C92.503 66.5266 92.0302 66.9994 92.0302 67.3145C92.0302 68.1024 92.3454 68.8903 92.503 69.6782Z" fill="#4F3333"/>
<path d="M83.6785 63.6902C86.1998 63.3751 88.4059 62.9023 90.7696 64.163C91.0848 64.3206 91.2424 64.0054 90.9272 63.8478C88.5635 62.1144 85.8846 61.3265 83.2058 62.7448C82.5754 63.0599 83.2058 63.8478 83.6785 63.6902Z" fill="#4F3333"/>
<path d="M72.3327 71.8844C73.5933 71.4116 74.5388 70.4662 75.6419 69.6782C76.9025 68.7328 78.0056 67.7873 79.1086 66.6842C79.4238 66.3691 78.9511 65.7387 78.4783 66.0539C77.5328 66.9994 76.4298 67.6297 75.3267 68.4176C74.2236 69.2055 72.8054 69.8358 71.8599 70.7813C71.3872 71.2541 71.7024 72.1995 72.3327 71.8844Z" fill="#4F3333"/>
<path d="M61.7748 83.2301C64.6112 82.1271 67.2901 79.4482 69.3386 77.2421C69.6538 76.7693 69.181 76.2966 68.7083 76.6118C67.4477 77.7148 66.0294 78.8179 64.6112 79.7634C63.5081 80.5513 62.2475 81.1816 61.302 82.1271C60.8293 82.7574 61.302 83.3877 61.7748 83.2301Z" fill="#4F3333"/>
<path d="M47.7501 89.0607C50.5866 89.2182 53.423 88.1152 55.9443 87.1697C56.417 87.0121 56.2595 86.3818 55.7867 86.3818C53.1078 87.1697 50.429 87.4849 47.7501 87.6424C46.9622 87.8 46.9622 89.0607 47.7501 89.0607Z" fill="#4F3333"/>
<path d="M37.1922 83.8606C37.9801 84.806 39.0832 85.7515 40.0286 86.5394C40.8165 87.1697 41.762 86.2243 41.1317 85.4364C40.3435 84.6485 39.5559 83.703 38.768 82.7575C37.9798 81.812 37.1922 80.3938 36.0891 79.6059C35.6164 79.2907 34.986 79.7635 35.1436 80.3938C35.1436 81.6544 36.2467 82.9151 37.1922 83.8606Z" fill="#4F3333"/>
<path d="M34.1981 75.3512C34.1981 75.9816 35.3009 75.9816 35.3009 75.3512C35.4585 73.7754 35.7737 72.3572 36.0891 70.7814C36.4042 69.3632 37.1921 67.9449 37.1921 66.3691C37.1921 65.5812 36.0891 65.2661 35.7737 66.054C34.3554 68.7328 34.0405 72.5148 34.1981 75.3512Z" fill="#4F3333"/>
<path d="M40.9741 59.4356C41.7622 58.3325 42.5499 57.2294 43.338 56.1264C43.9681 55.0233 45.0712 53.9202 45.229 52.6596C45.229 52.0293 44.5987 51.8717 44.1259 52.0293C43.0229 52.502 42.5501 53.9202 42.0774 54.8657C41.2895 56.1264 40.6592 57.5446 39.8713 58.8052C39.5558 59.5932 40.5013 60.0659 40.9741 59.4356Z" fill="#4F3333"/>
<path d="M48.8531 47.9322C50.2714 46.6715 51.3744 45.4109 52.3199 43.9927C53.2654 42.5744 54.5261 40.5259 54.2109 38.7925C54.0533 38.0046 53.2654 37.847 52.7927 38.4773C52.0048 39.5804 51.8472 41.1562 51.3744 42.4169C50.7441 44.3078 49.6411 46.0412 48.3804 47.617C48.0652 47.7746 48.538 48.2474 48.8531 47.9322Z" fill="#4F3333"/>
<path d="M57.8352 32.4892C59.2535 31.2285 60.3565 29.8103 61.302 28.0769C62.2475 26.3435 63.3506 24.1372 63.0354 22.2462C62.8778 21.6159 61.9323 21.6159 61.7748 22.0886C60.8293 23.5071 60.8293 25.3981 60.199 26.9739C59.5686 28.707 58.4656 30.4406 57.2049 32.0164C56.8898 32.3316 57.3625 32.9619 57.8352 32.4892Z" fill="#4F3333"/>
<path d="M57.9928 8.37966C59.0958 9.00973 60.0413 9.48246 60.8292 10.4279C61.6171 11.6886 61.9323 13.5796 61.9323 14.9978C61.9323 15.4708 62.7202 15.4708 62.7202 14.9978C63.0353 12.0038 62.405 6.80385 58.3079 6.96118C57.6776 7.11876 57.3624 8.06424 57.9928 8.37966Z" fill="#4F3333"/>
<path d="M41.2893 2.86402C43.0224 3.0216 44.756 2.70669 46.4892 2.70669C48.6956 2.86401 50.7441 3.4946 52.4775 4.75524C52.7927 4.91257 52.9503 4.43982 52.7927 4.2825C49.4835 1.76121 44.9134 -0.444928 40.8163 1.28846C40.0286 1.7612 40.5014 2.86402 41.2893 2.86402Z" fill="#4F3333"/>
<path d="M27.8949 13.5795C28.9979 12.9492 29.9434 12.0037 31.2041 11.2158C32.3071 10.5855 33.568 10.2703 34.8284 10.1127C35.6166 9.95516 35.6166 8.85209 34.8284 8.85209C31.992 8.69451 28.3676 9.64 26.7918 12.3189C26.1612 13.1068 27.107 13.8949 27.8949 13.5795Z" fill="#4F3333"/>
<path d="M21.4341 23.0346C23.4826 20.9861 25.6885 18.78 27.107 16.2587C27.5797 15.4705 26.4767 14.998 26.0039 15.6284C24.2705 17.8345 21.4341 19.4103 20.1732 22.0892C20.0159 22.8768 20.8038 23.6647 21.4341 23.0346Z" fill="#4F3333"/>
<path d="M9.61525 22.8768C10.088 23.8223 11.3486 24.4526 12.2941 24.9254C13.3972 25.3981 14.6578 25.5554 15.9185 25.5554C16.7064 25.5554 16.7064 24.4526 15.9185 24.4526C14.8154 24.4526 13.8699 24.1372 12.9244 23.6645C12.1363 23.1917 11.506 22.4038 10.7183 21.9313C10.088 21.4589 9.30035 22.2465 9.61525 22.8768Z" fill="#4F3333"/>
<path d="M0.160681 16.7312C2.36681 20.3556 3.78504 24.4527 5.67601 28.2346C6.62149 29.968 9.14278 28.3922 8.35488 26.6588C6.93665 23.5074 5.67601 20.198 3.78504 17.2039C5.20327 17.0464 6.62149 16.8888 8.1973 16.7312C8.82762 16.5736 9.93069 16.5736 10.4034 15.943L10.5608 15.7857C10.5608 15.7857 10.7183 15.7857 10.7183 15.6281C11.0335 15.313 10.7183 14.6826 10.4032 14.6826C10.2456 14.5251 10.0878 14.5251 9.77285 14.5251C8.98469 14.3677 8.19704 14.5251 7.25155 14.5251C5.203 14.6827 3.31204 14.8405 1.26349 14.6826C0.318267 14.5251 -0.31206 15.7857 0.160681 16.7312Z" fill="#4F3333"/>
</g>
<defs>
<clipPath id="clip0">
<rect width="94" height="94" fill="white" transform="translate(94 94) rotate(-180)"/>
</clipPath>
</defs>
</svg>
