<svg width="368" height="368" viewBox="0 0 368 368" fill="none" xmlns="http://www.w3.org/2000/svg">
<path d="M184 321C259.663 321 321 259.663 321 184C321 108.337 259.663 47 184 47C108.337 47 47 108.337 47 184C47 259.663 108.337 321 184 321Z" fill="#225FBB"/>
<path d="M275.87 275.87C326.656 225.083 326.656 142.743 275.87 91.9565C225.083 41.1703 142.743 41.1704 91.9565 91.9566C41.1703 142.743 41.1703 225.083 91.9565 275.87C142.743 326.656 225.083 326.656 275.87 275.87Z" fill="white"/>
<path d="M190.557 211.043L201.538 188.202C201.538 188.202 258.86 206.321 267.426 210.522C267.206 196.191 274.509 169.342 275.305 154.627C277.474 152.568 282.717 147.379 285.435 147.571C293.671 166.789 291.887 232.677 275.689 233.857C249.801 235.504 190.557 211.043 190.557 211.043Z" fill="#B55B52"/>
<path d="M183.419 207.474C190.035 222.986 244.365 236.795 244.365 236.795L255.346 203.411C255.346 203.411 234.647 187.708 213.151 182.629C191.161 177.386 176.116 190.453 183.419 207.474Z" fill="#225FBB"/>
<path opacity="0.2" d="M184.38 209.286C190.831 219.032 214.825 227.872 230.446 232.786C220.041 212.581 206.013 201.435 184.38 209.286Z" fill="black"/>
<path d="M275.25 157.537L266.492 146.308L282.69 137.276C285.879 142.097 287.517 147.778 287.384 153.556L275.25 157.537Z" fill="#B55B52"/>
<path d="M264.104 130.77L279.89 128.217L282.69 137.276L266.492 146.308L264.104 130.77Z" fill="#B55B52"/>
<path d="M214.468 183.755C214.468 183.755 236.596 237.014 219.245 336.258H132.767C131.752 321.762 139.137 251.153 123.488 182.849C133.885 180.823 144.404 179.484 154.977 178.841C168.336 178.071 181.728 178.071 195.086 178.841C209.088 180.131 214.468 183.755 214.468 183.755Z" fill="#225FBB"/>
<path opacity="0.2" d="M144.38 199.678C146.247 210.933 143.364 237.81 133.399 268.86C132.905 242.253 130.075 215.741 124.943 189.63C131.257 188.861 142.623 189.081 144.38 199.678Z" fill="black"/>
<path d="M159.287 141.339C162.033 154.242 163.79 170.248 154.977 178.841C154.977 178.841 160.468 191.936 184.462 191.936C206.425 191.936 195.086 178.841 195.086 178.841C180.619 175.409 180.921 157.619 183.199 147.571L159.287 141.339Z" fill="#B55B52"/>
<path d="M185.587 190.893L190.804 196.658C190.98 196.857 191.103 197.097 191.16 197.356C191.218 197.616 191.209 197.885 191.133 198.14L189.458 203.219C189.364 203.498 189.188 203.741 188.953 203.918C188.718 204.094 188.434 204.195 188.141 204.207L182.65 204.482C182.385 204.499 182.12 204.444 181.883 204.323C181.647 204.202 181.447 204.02 181.305 203.796L177.928 198.881C177.73 198.616 177.623 198.293 177.623 197.962C177.623 197.63 177.73 197.308 177.928 197.042L183.419 190.893C183.707 190.606 184.097 190.445 184.503 190.445C184.91 190.445 185.299 190.606 185.587 190.893Z" fill="white"/>
<path d="M184.462 189.63C181.8 194.088 180.325 199.154 180.179 204.345C180.179 204.345 149.981 193.748 150.887 178.209C150.887 178.209 155.087 175.683 157.75 173.624C157.75 173.624 159.013 183.425 184.462 189.63Z" fill="#263238"/>
<path d="M184.462 189.63C187.312 193.806 189.403 198.453 190.639 203.356C190.639 203.356 204.036 194.132 199.561 178.786C197.046 177.778 194.458 176.961 191.819 176.342C191.819 176.342 193.851 186.335 184.462 189.63Z" fill="#263238"/>
<path d="M186.905 203.411C186.905 203.411 195.498 266.554 195.69 277.535C195.574 287.93 193.936 298.252 190.831 308.173C190.831 308.173 184.929 296.999 183.913 277.068C182.897 257.137 184.133 214.585 183.693 203.384L186.905 203.411Z" fill="white"/>
<path opacity="0.2" d="M183.199 147.599C181.431 154.583 181.64 161.921 183.803 168.793C181.569 168.447 179.396 167.781 177.352 166.816C169.116 162.973 164.97 156.96 160.605 148.038C160.221 145.732 159.782 143.508 159.315 141.339L183.199 147.599Z" fill="black"/>
<path d="M205.958 138.539C204.982 140.465 203.628 142.174 201.977 143.566C200.326 144.957 198.412 146.002 196.349 146.638C190.859 148.258 187.866 143.234 189.239 137.88C190.502 133.049 194.729 126.405 200.495 127.091C201.732 127.278 202.905 127.766 203.911 128.511C204.917 129.256 205.724 130.236 206.263 131.366C206.802 132.495 207.056 133.74 207.003 134.991C206.95 136.241 206.591 137.459 205.958 138.539Z" fill="#B55B52"/>
<path opacity="0.2" d="M205.958 138.539C204.982 140.465 203.628 142.174 201.977 143.566C200.326 144.957 198.412 146.002 196.349 146.638C190.859 148.258 187.866 143.234 189.239 137.88C190.502 133.049 194.729 126.405 200.495 127.091C201.732 127.278 202.905 127.766 203.911 128.511C204.917 129.256 205.724 130.236 206.263 131.366C206.802 132.495 207.056 133.74 207.003 134.991C206.95 136.241 206.591 137.459 205.958 138.539Z" fill="black"/>
<path d="M190.035 127.366C195.526 132.39 205.546 104.827 194.318 97.1672C183.089 89.5077 179.164 99.9125 179.356 106.254C179.548 112.596 181.744 119.926 190.035 127.366Z" fill="#263238"/>
<path d="M152.534 122.726C155.114 140.186 155.746 150.536 165.272 158.964C179.575 171.62 200.248 162.122 202.856 144.332C205.217 128.299 200.604 102.411 183.062 96.5632C179.22 95.2576 175.105 94.9749 171.121 95.7431C167.137 96.5112 163.422 98.3036 160.341 100.944C157.26 103.584 154.92 106.981 153.551 110.801C152.182 114.62 151.832 118.73 152.534 122.726Z" fill="#B55B52"/>
<path d="M151.436 137.551C154.456 139.5 158.601 144.771 164.833 135.437C164.833 133.021 158.711 128.958 158.244 123.248C157.695 116.604 156.24 109.521 150.859 107.188C138.588 101.697 136.336 112.239 137.544 118.553C138.752 124.867 142.074 131.429 151.436 137.551Z" fill="#263238"/>
<path d="M149.788 113.337C178.752 108.835 195.855 107.846 204.558 97.0024C213.26 86.1584 199.891 72.7337 185.34 71.1963C184.297 76.8517 169.555 91.7313 146.906 98.1829C145.645 98.5296 144.511 99.2322 143.639 100.207C142.766 101.181 142.193 102.386 141.988 103.677C141.782 104.969 141.953 106.292 142.479 107.489C143.006 108.686 143.866 109.706 144.957 110.427C147.729 112.212 149.788 113.337 149.788 113.337Z" fill="#263238"/>
<path d="M146.412 142.602C149.05 146.186 152.996 148.584 157.393 149.274C163.131 150.152 165.19 144.799 162.884 139.692C160.825 135.08 155.362 129.095 149.926 130.55C144.49 132.005 143.2 138.182 146.412 142.602Z" fill="#B55B52"/>
<path d="M179.191 125.938C179.191 127.366 180.179 128.491 181.085 128.409C181.991 128.326 182.65 127.146 182.54 125.664C182.43 124.181 181.579 123.138 180.646 123.193C179.713 123.248 179.081 124.401 179.191 125.938Z" fill="#263238"/>
<path d="M195.114 124.758C195.251 126.185 196.102 127.283 197.008 127.228C197.914 127.174 198.573 125.966 198.463 124.483C198.353 123.001 197.475 121.93 196.569 122.012C195.663 122.095 195.004 123.33 195.114 124.758Z" fill="#263238"/>
<path d="M190.117 125.938C192.177 130.195 194.8 134.157 197.914 137.716C197.009 138.477 195.946 139.028 194.801 139.327C193.657 139.626 192.46 139.667 191.298 139.445L190.117 125.938Z" fill="#A02724"/>
<path d="M187.537 143.536C187.59 143.533 187.642 143.518 187.689 143.494C187.736 143.47 187.778 143.436 187.812 143.394C187.845 143.353 187.87 143.305 187.884 143.254C187.898 143.203 187.901 143.149 187.894 143.097C187.89 143.042 187.876 142.989 187.852 142.941C187.828 142.892 187.795 142.849 187.754 142.813C187.713 142.777 187.666 142.75 187.614 142.733C187.563 142.715 187.508 142.708 187.454 142.712C185.687 142.861 183.91 142.593 182.265 141.931C180.62 141.268 179.153 140.229 177.983 138.896C177.951 138.853 177.91 138.816 177.863 138.789C177.817 138.761 177.765 138.743 177.712 138.736C177.658 138.728 177.604 138.731 177.551 138.744C177.499 138.758 177.45 138.781 177.406 138.814C177.363 138.846 177.327 138.887 177.299 138.933C177.272 138.98 177.254 139.031 177.246 139.085C177.238 139.139 177.241 139.193 177.255 139.245C177.268 139.298 177.292 139.347 177.324 139.39C178.57 140.849 180.148 141.987 181.925 142.708C183.702 143.43 185.627 143.714 187.537 143.536Z" fill="#263238"/>
<path d="M173.947 120.942C174.074 120.939 174.198 120.905 174.308 120.842C174.418 120.78 174.511 120.692 174.579 120.585C175.102 119.686 175.834 118.927 176.714 118.373C177.593 117.818 178.594 117.485 179.63 117.4C179.739 117.404 179.848 117.385 179.95 117.345C180.052 117.305 180.144 117.245 180.221 117.167C180.298 117.09 180.359 116.998 180.399 116.896C180.439 116.795 180.458 116.686 180.454 116.577C180.454 116.351 180.364 116.134 180.205 115.975C180.045 115.815 179.828 115.725 179.603 115.725C178.292 115.801 177.02 116.199 175.899 116.884C174.779 117.569 173.844 118.519 173.179 119.651C173.119 119.744 173.079 119.849 173.06 119.958C173.042 120.067 173.046 120.178 173.071 120.286C173.097 120.394 173.144 120.495 173.209 120.584C173.275 120.673 173.358 120.748 173.453 120.804C173.522 120.859 173.602 120.899 173.686 120.923C173.771 120.947 173.86 120.953 173.947 120.942Z" fill="#263238"/>
<path d="M201.785 118.553L202.114 118.416C202.209 118.355 202.29 118.276 202.353 118.182C202.416 118.089 202.459 117.984 202.48 117.873C202.5 117.763 202.498 117.649 202.473 117.539C202.448 117.429 202.401 117.326 202.334 117.235C201.623 116.11 200.655 115.17 199.51 114.492C198.364 113.814 197.074 113.418 195.745 113.337C195.635 113.337 195.525 113.359 195.424 113.402C195.322 113.445 195.23 113.508 195.153 113.588C195.076 113.667 195.016 113.761 194.976 113.864C194.937 113.968 194.918 114.078 194.922 114.188C194.929 114.409 195.022 114.618 195.18 114.772C195.339 114.926 195.552 115.012 195.773 115.012C196.826 115.09 197.845 115.417 198.747 115.965C199.649 116.514 200.408 117.269 200.961 118.169C201.055 118.298 201.179 118.401 201.323 118.468C201.467 118.535 201.626 118.565 201.785 118.553Z" fill="#263238"/>
<path d="M113.55 206.266L135.787 219.334C135.787 219.334 107.73 274.241 110.777 282.806C114.923 294.337 121.21 319.676 128.567 332.222C127.853 334.968 123.735 341.639 121.319 342.874C103.639 331.014 84.2849 292.168 84.3398 281.077C84.5869 255.902 113.55 206.266 113.55 206.266Z" fill="#B55B52"/>
<path d="M123.488 182.849C106.851 185.265 89.1441 243.246 89.1441 243.246L128.512 255.792C135.53 242.628 141.612 228.987 146.714 214.969C154.016 193.556 141.333 180.241 123.488 182.849Z" fill="#225FBB"/>
<path d="M124.532 330.026L141.305 328.818L132.85 347.321C132.85 347.321 118.135 347.898 115.444 336.67L124.532 330.026Z" fill="#B55B52"/>
<path d="M155.142 337.328L146.631 353.718L132.85 347.321L141.305 328.818L155.142 337.328Z" fill="#B55B52"/>
</svg>
