<svg width="374" height="368" viewBox="0 0 374 368" fill="none" xmlns="http://www.w3.org/2000/svg">
<path d="M187.42 322.152C110.206 322.152 47.612 260.562 47.612 184.587C47.612 108.612 110.206 47.0222 187.42 47.0222C264.634 47.0222 327.228 108.612 327.228 184.587C327.228 260.562 264.634 322.152 187.42 322.152Z" fill="#225FBB"/>
<path d="M186.911 315.149C113.909 315.149 54.7295 256.918 54.7295 185.087C54.7295 113.256 113.909 55.026 186.911 55.026C259.914 55.026 319.094 113.256 319.094 185.087C319.094 256.918 259.914 315.149 186.911 315.149Z" fill="white"/>
<path d="M193.268 86.1733C213.115 84.4155 225.481 114.464 221.349 160.332C196.227 174.367 167.447 160.332 144.418 171.621C123.12 139.568 128.786 67.2765 193.268 86.1733Z" fill="#263238"/>
<path d="M224.252 218.945C227.104 229.366 231.121 239.443 236.228 248.993C238.977 254.219 242.412 259.067 246.444 263.413C247.626 264.662 248.905 265.819 250.268 266.874C252.408 268.69 254.967 269.963 257.721 270.582C259.843 271.008 262.038 270.914 264.114 270.307C265.96 269.754 267.664 268.817 269.11 267.56C270.931 265.947 272.411 263.996 273.465 261.82C274.844 258.901 275.866 255.83 276.508 252.674C277.11 249.954 277.557 247.203 277.848 244.434C278.462 238.941 278.741 233.832 278.825 228.613C278.978 218.295 278.503 207.976 277.401 197.714L267.129 197.906C266.235 207.794 265.202 217.792 263.89 227.515C263.193 232.376 262.411 237.21 261.406 241.825C260.904 244.104 260.317 246.357 259.703 248.417C259.201 250.199 258.479 251.915 257.554 253.525C257.247 254.02 256.856 254.294 257.331 253.772C257.812 253.364 258.372 253.056 258.978 252.866C259.818 252.611 260.707 252.554 261.574 252.701C262.83 252.921 262.913 253.278 262.411 252.701C261.823 252.113 261.273 251.489 260.764 250.834C258.218 247.411 256.056 243.727 254.316 239.847C252.281 235.613 250.474 231.276 248.901 226.855C247.226 222.433 245.663 217.682 244.295 213.397L224.252 218.945Z" fill="#FFB573"/>
<path d="M238.042 192.495C246.416 194.61 252.278 228.503 252.278 228.503L220.261 249.927C220.261 249.927 207.085 209.744 213.533 200.68C219.981 191.616 225.76 189.336 238.042 192.495Z" fill="#263238"/>
<path opacity="0.2" d="M237.288 200.076L243.736 234.244L230.756 242.896L237.288 200.076Z" fill="black"/>
<path d="M266.682 200.735L262.439 179.668L279.466 184.53C279.466 184.53 281.141 199.115 274.274 203.921L266.682 200.735Z" fill="#FFB573"/>
<path d="M264.142 170.412L278.21 176.153L279.466 184.53L262.439 179.668L264.142 170.412Z" fill="#FFB573"/>
<path d="M238.042 192.495C238.042 192.495 247.728 195.873 228.328 313.154H145.842C147.209 280.195 147.265 259.732 131.215 191.918C142.766 189.582 154.474 188.068 166.247 187.386C178.718 186.506 191.237 186.506 203.708 187.386C219.786 188.842 238.042 192.495 238.042 192.495Z" fill="#263238"/>
<path opacity="0.2" d="M137.998 218.78C145.479 220.593 152.402 228.641 151.564 243.5C151.098 250.223 148.707 256.679 144.669 262.122C143.357 250.751 141.152 237.54 137.635 220.676L137.998 218.78Z" fill="black"/>
<path d="M199.353 213.397C199.353 213.397 185.843 224.383 185.843 236.002C174.677 227.899 159.464 205.789 157.929 191.754C157.875 191.185 157.94 190.611 158.118 190.067C158.296 189.524 158.584 189.021 158.965 188.59C159.345 188.159 159.811 187.808 160.334 187.558C160.856 187.309 161.424 187.167 162.004 187.139C163.016 187.073 164.023 186.944 165.019 186.755C165.439 186.667 165.875 186.676 166.291 186.78C166.707 186.885 167.094 187.083 167.42 187.359L199.353 213.397Z" fill="#FAFAFA"/>
<path d="M199.353 213.397C203.035 216.079 206.13 219.463 208.456 223.346C210.782 227.23 212.29 231.533 212.892 236.002C224.28 227.762 219.563 202.411 213.226 190.435C212.729 189.501 212.005 188.702 211.119 188.108C210.233 187.514 209.212 187.143 208.146 187.029C206.499 186.837 205.215 186.617 204.378 186.453C204.227 186.421 204.071 186.421 203.92 186.451C203.769 186.482 203.626 186.543 203.5 186.631C203.374 186.718 203.268 186.831 203.188 186.961C203.109 187.091 203.058 187.236 203.038 187.387L199.353 213.397Z" fill="#FAFAFA"/>
<path d="M169.932 145.885C172.276 157.75 174.649 179.476 166.219 187.387C175.36 198.164 186.621 207.011 199.325 213.397C216.074 200.241 203.68 187.387 203.68 187.387C190.225 184.228 190.588 174.422 192.933 165.194L169.932 145.885Z" fill="#FFB573"/>
<path opacity="0.2" d="M179.339 153.768L192.933 165.194C192.365 167.337 191.982 169.524 191.788 171.731C186.652 171.017 178.585 166.704 177.469 161.211C177.452 158.615 178.095 156.057 179.339 153.768V153.768Z" fill="black"/>
<path d="M149.75 126.823C155.332 145.885 157.259 154.07 169.429 161.843C187.713 173.488 210.295 162.584 210.63 142.259C210.937 123.967 201.754 95.8689 180.79 92.3807C176.172 91.5907 171.424 91.9757 167 93.4993C162.575 95.0228 158.619 97.6342 155.509 101.085C152.399 104.537 150.237 108.713 149.229 113.218C148.221 117.722 148.4 122.406 149.75 126.823V126.823Z" fill="#FFB573"/>
<path d="M164.628 109.053C161.222 128.087 159.91 135.448 153.071 140.364C146.233 145.281 139.868 122.704 144.921 114.024C149.973 105.345 164.628 109.053 164.628 109.053Z" fill="#263238"/>
<path d="M196.785 91.1997C200.888 95.9788 192.458 105.977 184.28 109.245C184.782 108.196 185.148 107.089 185.368 105.949C179.463 109.922 172.825 112.721 165.828 114.189C166.617 113.206 167.144 112.045 167.364 110.811C167.364 109.877 147.21 123.006 144.279 113.557C141.348 104.109 151.341 91.749 166.61 87.7939C179.618 84.5803 191.733 85.2944 196.785 91.1997Z" fill="#263238"/>
<path d="M182.242 125.12C182.577 126.686 183.721 127.867 184.782 127.537C185.843 127.208 186.373 125.862 186.01 124.269C185.647 122.676 184.531 121.522 183.47 121.852C182.409 122.181 181.879 123.417 182.242 125.12Z" fill="#263238"/>
<path d="M200.302 121.165C200.665 122.731 201.81 123.912 202.842 123.582C203.875 123.253 204.461 121.907 204.098 120.314C203.736 118.721 202.619 117.567 201.558 117.897C200.497 118.226 199.967 119.572 200.302 121.165Z" fill="#263238"/>
<path d="M201.112 118.089L204.712 116.139C204.712 116.139 203.428 119.517 201.112 118.089Z" fill="#263238"/>
<path d="M195.389 125.203C197.62 128.476 200.297 131.434 203.345 133.992C202.649 134.763 201.786 135.37 200.82 135.77C199.854 136.169 198.809 136.35 197.762 136.299L195.389 125.203Z" fill="#ED893E"/>
<path d="M190.56 144.374C191.366 144.313 192.168 144.203 192.961 144.045C193.084 144.012 193.191 143.934 193.258 143.827C193.326 143.72 193.349 143.591 193.324 143.468C193.311 143.406 193.285 143.347 193.248 143.295C193.211 143.243 193.163 143.199 193.109 143.165C193.054 143.132 192.992 143.11 192.929 143.1C192.865 143.091 192.8 143.095 192.737 143.111C190.76 143.585 188.696 143.596 186.713 143.143C184.73 142.69 182.883 141.785 181.32 140.502C181.227 140.413 181.102 140.363 180.972 140.363C180.841 140.363 180.716 140.413 180.623 140.502C180.54 140.592 180.495 140.71 180.495 140.831C180.495 140.953 180.54 141.07 180.623 141.161C181.981 142.316 183.559 143.194 185.265 143.746C186.97 144.297 188.77 144.511 190.56 144.374V144.374Z" fill="#263238"/>
<path d="M148.466 145.857C150.654 149.021 154.026 151.204 157.845 151.927C162.925 152.861 165.019 148.274 163.204 143.688C161.585 139.65 157.007 134.322 152.039 135.448C150.957 135.709 149.96 136.234 149.14 136.975C148.32 137.716 147.703 138.649 147.347 139.687C146.99 140.725 146.906 141.835 147.102 142.913C147.297 143.992 147.766 145.005 148.466 145.857Z" fill="#FFB573"/>
<path d="M173.365 121.66C173.567 121.638 173.757 121.55 173.903 121.411C174.049 121.272 174.145 121.089 174.175 120.891C174.654 119.417 175.437 118.057 176.474 116.895C177.512 115.732 178.781 114.792 180.204 114.134C180.337 114.094 180.461 114.027 180.565 113.936C180.67 113.845 180.754 113.733 180.811 113.608C180.868 113.483 180.897 113.347 180.896 113.21C180.896 113.073 180.865 112.937 180.807 112.813C180.749 112.688 180.664 112.577 180.558 112.487C180.453 112.397 180.329 112.331 180.195 112.292C180.061 112.253 179.921 112.243 179.783 112.263C179.644 112.282 179.512 112.33 179.395 112.404C177.682 113.198 176.164 114.345 174.94 115.766C173.717 117.188 172.818 118.851 172.304 120.644C172.263 120.887 172.318 121.137 172.458 121.341C172.598 121.546 172.813 121.689 173.058 121.742L173.365 121.66Z" fill="#263238"/>
<path d="M203.875 108.558C204.045 108.563 204.214 108.525 204.365 108.449C204.517 108.372 204.646 108.258 204.74 108.119C204.879 107.907 204.927 107.65 204.875 107.403C204.823 107.157 204.674 106.94 204.461 106.8C203.204 105.947 201.757 105.402 200.242 105.211C198.727 105.02 197.188 105.188 195.752 105.702C195.632 105.749 195.524 105.821 195.433 105.911C195.343 106.001 195.272 106.109 195.224 106.227C195.177 106.345 195.155 106.472 195.16 106.599C195.164 106.726 195.195 106.85 195.25 106.965C195.301 107.077 195.374 107.178 195.465 107.262C195.556 107.346 195.663 107.411 195.779 107.455C195.896 107.498 196.02 107.519 196.145 107.515C196.27 107.511 196.392 107.483 196.506 107.432C197.652 107.053 198.872 106.942 200.069 107.109C201.266 107.276 202.407 107.716 203.401 108.393C203.541 108.488 203.705 108.545 203.875 108.558V108.558Z" fill="#263238"/>
<path d="M183.051 122.044L186.624 120.094C186.624 120.094 185.34 123.418 183.051 122.044Z" fill="#263238"/>
<path d="M144.586 308.403L142.492 315.654C142.185 316.231 142.883 316.808 143.832 316.808H228.747C229.5 316.808 230.114 316.423 230.142 315.984L230.896 308.705C230.896 308.211 230.31 307.771 229.5 307.771H145.926C145.665 307.751 145.404 307.799 145.169 307.91C144.934 308.02 144.733 308.191 144.586 308.403V308.403Z" fill="#407BFF"/>
<path opacity="0.2" d="M144.586 308.403L142.492 315.654C142.185 316.231 142.883 316.808 143.832 316.808H228.747C229.5 316.808 230.114 316.423 230.142 315.984L230.896 308.705C230.896 308.211 230.31 307.771 229.5 307.771H145.926C145.665 307.751 145.404 307.799 145.169 307.91C144.934 308.02 144.733 308.191 144.586 308.403V308.403Z" fill="black"/>
<path d="M155.975 317.577H153.742C153.295 317.577 152.96 317.357 152.988 317.082L154.049 307.634C154.049 307.359 154.467 307.139 154.914 307.139H157.147C157.594 307.139 157.929 307.359 157.901 307.634L156.84 317.082C156.924 317.357 156.533 317.577 155.975 317.577Z" fill="#407BFF"/>
<path opacity="0.4" d="M155.975 317.577H153.742C153.295 317.577 152.96 317.357 152.988 317.082L154.049 307.634C154.049 307.359 154.467 307.139 154.914 307.139H157.147C157.594 307.139 157.929 307.359 157.901 307.634L156.84 317.082C156.924 317.357 156.533 317.577 155.975 317.577Z" fill="black"/>
<path d="M222.466 317.577H220.233C219.786 317.577 219.423 317.357 219.451 317.082L220.512 307.634C220.512 307.359 220.931 307.139 221.377 307.139H223.61C224.057 307.139 224.392 307.359 224.364 307.634L223.331 317.082C223.303 317.357 222.968 317.577 222.466 317.577Z" fill="#407BFF"/>
<path opacity="0.4" d="M222.466 317.577H220.233C219.786 317.577 219.423 317.357 219.451 317.082L220.512 307.634C220.512 307.359 220.931 307.139 221.377 307.139H223.61C224.057 307.139 224.392 307.359 224.364 307.634L223.331 317.082C223.303 317.357 222.968 317.577 222.466 317.577Z" fill="black"/>
<path d="M189.472 317.577H187.238C186.792 317.577 186.457 317.357 186.485 317.082L187.518 307.634C187.518 307.359 187.936 307.139 188.383 307.139H190.616C191.063 307.139 191.426 307.359 191.398 307.634L190.337 317.082C190.253 317.357 189.862 317.577 189.472 317.577Z" fill="#407BFF"/>
<path opacity="0.4" d="M189.472 317.577H187.238C186.792 317.577 186.457 317.357 186.485 317.082L187.518 307.634C187.518 307.359 187.936 307.139 188.383 307.139H190.616C191.063 307.139 191.426 307.359 191.398 307.634L190.337 317.082C190.253 317.357 189.862 317.577 189.472 317.577Z" fill="black"/>
<path d="M195.417 329.415L215.432 320.598L209.849 340.126C209.849 340.126 197.12 342.873 191.593 336.693L195.417 329.415Z" fill="#FFB573"/>
<path d="M121.584 216.006C120.663 222.873 119.938 229.739 119.1 236.606L116.979 257.233C116.225 264.1 115.695 270.966 115.08 277.86L114.103 288.215L113.88 290.797C113.88 291.072 113.88 292.143 113.741 292.884C113.699 293.68 113.699 294.478 113.741 295.274C114.078 298.225 115.028 301.076 116.532 303.651C118.955 307.625 122.164 311.08 125.967 313.814C129.158 316.175 132.537 318.278 136.072 320.103C142.68 323.445 149.539 326.282 156.589 328.591C170.241 333.097 184.244 336.495 198.46 338.753L200.749 328.893C194.245 326.778 187.601 324.608 181.209 322.191C174.817 319.774 168.341 317.384 162.171 314.61C156.092 311.991 150.198 308.972 144.53 305.574C141.932 304.003 139.459 302.24 137.133 300.3C135.32 298.853 133.812 297.071 132.694 295.054C132.451 294.614 132.308 294.126 132.276 293.626L132.75 290.358L134.229 280.085C135.206 273.246 136.295 266.352 137.021 259.54L139.673 238.968C140.426 232.074 141.32 225.235 141.962 218.341L121.584 216.006Z" fill="#FFB573"/>
<path d="M131.215 191.918C122.841 194.39 113.015 222.406 113.015 222.406L142.018 251.712C142.018 251.712 156.868 221.5 153.379 211.09C149.694 200.131 140.65 189.117 131.215 191.918Z" fill="#263238"/>
<path d="M232.013 324.608L226.346 340.703L209.737 340.071L215.46 320.543L232.013 324.608Z" fill="#FFB573"/>
</svg>
