<svg width="114" height="114" viewBox="0 0 114 114" fill="none" xmlns="http://www.w3.org/2000/svg">
<g opacity="0.8">
<path d="M111.376 0H15.0747C14.5635 0 14.0607 0.202395 13.7325 0.594047C13.0151 1.45016 13.3344 2.67187 14.2161 3.14658L36.6777 15.2413C36.6799 15.2424 36.6815 15.2446 36.6819 15.2473L41.9117 50.111C42.0989 51.3189 43.5333 51.9381 44.5355 51.2267L66.4718 35.6404C66.4742 35.6386 66.4776 35.6384 66.4805 35.6399L82.0257 44.1897C82.7671 44.5972 83.7227 44.3732 84.2055 43.6789L100.551 20.1829C101.078 19.4243 100.891 18.3814 100.133 17.8537C99.3737 17.3258 98.3314 17.5133 97.8033 18.2718L82.3227 40.5257C82.3202 40.529 82.3158 40.5301 82.3122 40.5281L51.3109 23.4775C51.3047 23.4742 51.3056 23.4651 51.3122 23.4626L107.114 4.86192C107.122 4.85947 107.128 4.86793 107.123 4.87417L102.497 11.5242C101.971 12.2804 102.093 13.3478 102.836 13.8924C103.598 14.4508 104.664 14.2691 105.2 13.4992L112.762 2.62868C112.81 2.56032 112.852 2.48618 112.889 2.41114C113.432 1.30855 112.595 0 111.376 0ZM63.2079 33.84C63.213 33.8429 63.2134 33.8504 63.2085 33.8538L45.7483 46.2595C45.7425 46.2635 45.7347 46.2588 45.7356 46.2517L48.4696 25.7466C48.4703 25.7411 48.4765 25.7379 48.4816 25.7406L63.2079 33.84ZM90.0008 7.03883L46.6066 21.5035C46.0083 21.7039 45.5606 22.2436 45.4771 22.8697L43.4761 37.8765C43.4747 37.8858 43.4614 37.8858 43.46 37.8767L40.1108 15.5481C40.1102 15.5436 40.1131 15.5396 40.1175 15.539L89.9968 7.02302C90.0066 7.02124 90.0101 7.03549 90.0008 7.03883ZM91.5511 3.36255L38.5006 12.42C38.4988 12.4202 38.497 12.42 38.4955 12.4191L21.6745 3.36189C21.6671 3.35788 21.6698 3.34652 21.6782 3.34652H91.5498C91.5598 3.34652 91.5609 3.361 91.5511 3.36255Z" fill="#4F3333"/>
<path d="M30.9777 66.9661C30.5083 66.973 30.0303 66.9921 29.5572 67.0228C28.6349 67.0825 27.9358 67.8783 27.9952 68.8005C28.0522 69.686 28.7886 70.366 29.6634 70.366C29.6997 70.366 29.7362 70.3649 29.7729 70.3624C30.1913 70.3355 30.6134 70.3186 31.0278 70.3123C31.9518 70.2985 32.6897 69.5382 32.6759 68.6144C32.6621 67.6906 31.8973 66.9471 30.9777 66.9661Z" fill="#4F3333"/>
<path d="M39.2006 68.1457C38.3329 67.864 37.4216 67.6289 36.4922 67.4468C35.586 67.2684 34.7063 67.8598 34.5284 68.7669C34.3505 69.6736 34.9416 70.5531 35.8485 70.731C36.6467 70.8875 37.4271 71.0888 38.1677 71.329C39.0356 71.6102 39.9941 71.1213 40.2758 70.254C40.5608 69.3748 40.0792 68.4309 39.2006 68.1457Z" fill="#4F3333"/>
<path d="M21.7791 83.6319C21.6484 82.8689 21.5727 82.082 21.5545 81.2932C21.5331 80.3692 20.7645 79.6388 19.8429 79.6591C18.9191 79.6805 18.1875 80.4469 18.2088 81.3707C18.2309 82.3227 18.3224 83.2737 18.4807 84.1973C18.6345 85.0955 19.5136 85.7182 20.4125 85.5635C21.3236 85.4076 21.9352 84.5426 21.7791 83.6319Z" fill="#4F3333"/>
<path d="M29.9421 93.9656C29.2349 93.7149 28.5469 93.3905 27.8974 93.0016C27.1043 92.5271 26.077 92.7849 25.6021 93.5778C25.1276 94.3707 25.3854 95.3982 26.1783 95.8731C27.0179 96.3755 27.9075 96.7949 28.8235 97.1198C29.7292 97.4409 30.7441 96.9083 30.997 95.9829C31.225 95.1491 30.7561 94.2544 29.9421 93.9656Z" fill="#4F3333"/>
<path d="M32.1144 60.4999C31.5399 59.776 30.4872 59.6551 29.7636 60.2294C29.0535 60.7927 28.3573 61.3914 27.6947 62.0093C27.0185 62.6392 26.981 63.6979 27.6107 64.3741C28.2317 65.041 29.3082 65.0793 29.9753 64.4578C30.5738 63.9003 31.2026 63.3595 31.8439 62.8509C32.5677 62.2762 32.6888 61.224 32.1144 60.4999Z" fill="#4F3333"/>
<path d="M24.5107 89.9732C24.0458 89.372 23.6258 88.7192 23.2627 88.0327C22.8305 87.216 21.8176 86.9045 21.0012 87.3365C20.1845 87.7689 19.8727 88.7813 20.3049 89.598C20.7573 90.4532 21.2819 91.2682 21.8635 92.0203C22.4651 92.7985 23.6443 92.8826 24.3519 92.1984C24.9564 91.6135 25.025 90.638 24.5107 89.9732Z" fill="#4F3333"/>
<path d="M22.0009 72.1988C21.1508 71.8365 20.168 72.2322 19.8057 73.0823C19.4062 74.0192 19.0798 74.9415 18.861 75.7486C18.6192 76.6406 19.1462 77.5595 20.0379 77.8015C20.1842 77.8411 20.3316 77.86 20.4766 77.86C21.2135 77.86 21.8886 77.3695 22.0904 76.6243C22.2155 76.1632 22.4546 75.4019 22.8841 74.3937C23.2466 73.5436 22.8512 72.5608 22.0009 72.1988Z" fill="#4F3333"/>
<path d="M26.3579 65.7413C25.6287 65.1729 24.5775 65.3032 24.0095 66.0321C23.4498 66.75 22.9138 67.4972 22.4173 68.2529C21.9094 69.0251 22.1238 70.0627 22.896 70.5703C23.6584 71.0717 24.7124 70.8531 25.2134 70.0916C25.661 69.4109 26.1439 68.7374 26.6487 68.0901C27.2169 67.3612 27.0866 66.3096 26.3579 65.7413Z" fill="#4F3333"/>
<path d="M46.5142 72.5348C45.8572 71.8528 45.111 71.2169 44.2966 70.6446C43.5406 70.1132 42.4971 70.2955 41.9656 71.0519C41.4343 71.808 41.6167 72.8516 42.3728 73.3829C43.0127 73.8324 43.5952 74.3283 44.104 74.8566C44.7368 75.5132 45.8131 75.5333 46.4699 74.9007C47.1354 74.2595 47.1553 73.2003 46.5142 72.5348Z" fill="#4F3333"/>
<path d="M38.6981 95.5893C38.5043 94.6855 37.6155 94.1106 36.7113 94.3039C36.0139 94.4533 35.2834 94.5521 34.5377 94.598L34.4077 94.6054C33.4848 94.6512 32.7736 95.4365 32.8195 96.3597C32.8638 97.2545 33.6032 97.9499 34.4892 97.9499C34.517 97.9499 34.5455 97.9492 34.5736 97.9479L34.7441 97.9383C35.6543 97.8829 36.5521 97.7608 37.4129 97.5765C38.3164 97.3823 38.8918 96.493 38.6981 95.5893Z" fill="#4F3333"/>
<path d="M50.1086 80.5249C50.0291 79.5107 49.8436 78.5301 49.557 77.6103C49.2821 76.728 48.3436 76.2354 47.4616 76.5106C46.5792 76.7854 46.0872 77.7237 46.3619 78.6061C46.5743 79.2872 46.7122 80.0206 46.7721 80.7856C46.8431 81.6948 47.6616 82.3946 48.5707 82.3235C49.4796 82.2523 50.1796 81.434 50.1086 80.5249Z" fill="#4F3333"/>
<path d="M48.3471 84.1868C47.4605 83.9254 46.5302 84.4312 46.2682 85.3174C46.0502 86.0557 45.7674 86.7798 45.4281 87.4698C45.0199 88.2988 45.3615 89.3018 46.1909 89.7097C47.0094 90.1128 48.0285 89.7647 48.4308 88.9469C48.8539 88.087 49.2061 87.1848 49.4777 86.2653C49.7396 85.3791 49.2333 84.4484 48.3471 84.1868Z" fill="#4F3333"/>
<path d="M38.929 56.74C38.536 55.9032 37.5394 55.5438 36.7031 55.9368C35.8817 56.3225 35.0677 56.7428 34.2841 57.1862C33.6585 57.54 33.3234 58.2776 33.4692 58.9816C33.6282 59.7503 34.3249 60.3163 35.1095 60.3163C35.3887 60.3163 35.6715 60.2463 35.9318 60.0992C36.6423 59.6973 37.3806 59.3159 38.1259 58.9658C38.9624 58.5729 39.322 57.5762 38.929 56.74Z" fill="#4F3333"/>
<path d="M45.0908 91.2263C44.4542 90.5563 43.3955 90.5287 42.7253 91.165C42.1722 91.6903 41.5691 92.1648 40.9323 92.576C40.1559 93.0774 39.933 94.113 40.4342 94.8894C40.9283 95.6551 41.9812 95.8824 42.7476 95.3875C43.5585 94.8638 44.3264 94.2597 45.0298 93.5918C45.6998 92.9554 45.7272 91.8964 45.0908 91.2263Z" fill="#4F3333"/>
<path d="M45.1827 54.785C44.9443 53.8926 44.0269 53.3626 43.1343 53.6004C42.683 53.7211 42.231 53.8502 41.791 53.9841C40.9527 54.2397 40.4459 55.1307 40.6537 55.982C40.8786 56.9031 41.8596 57.4613 42.7669 57.1852C43.1699 57.0623 43.5838 56.9441 43.998 56.8334C44.8904 56.5949 45.421 55.6778 45.1827 54.785Z" fill="#4F3333"/>
<path d="M7.57233 111.563C7.37817 111.188 7.18981 110.804 7.0119 110.422C6.62159 109.585 5.62587 109.222 4.78846 109.613C3.95105 110.003 3.58834 110.998 3.97888 111.836C4.17571 112.258 4.38411 112.683 4.59853 113.098C5.01668 113.908 6.04157 114.236 6.8527 113.818C7.67386 113.394 7.99604 112.385 7.57233 111.563Z" fill="#4F3333"/>
<path d="M5.35199 105.981C5.13646 105.222 4.95099 104.449 4.80136 103.681C4.62435 102.775 3.7462 102.183 2.83843 102.36C1.93155 102.537 1.33995 103.416 1.51696 104.323C1.6844 105.181 1.89169 106.047 2.13283 106.896C2.38176 107.773 3.32226 108.298 4.19952 108.048C5.08881 107.796 5.60471 106.87 5.35199 105.981Z" fill="#4F3333"/>
<path d="M2.78145 94.8502C1.86099 94.7932 1.0641 95.4914 1.0051 96.4135C0.96324 97.0694 0.941865 97.7345 0.941865 98.3904C0.941865 98.9923 0.920044 99.5776 1.31682 100.072C1.639 100.473 2.14198 100.711 2.65788 100.697C3.16954 100.686 3.65582 100.436 3.9622 100.026C4.33336 99.5295 4.28839 98.9778 4.28839 98.3902C4.28839 97.8053 4.30731 97.2119 4.34472 96.6265C4.40372 95.7045 3.70369 94.9092 2.78145 94.8502Z" fill="#4F3333"/>
<path d="M4.59874 87.5633C3.71836 87.279 2.7763 87.7624 2.49242 88.6416C2.22233 89.4786 1.98365 90.3347 1.7837 91.1862C1.57196 92.0855 2.12993 92.9861 3.02946 93.1977C3.91719 93.4065 4.83253 92.8392 5.04116 91.9519C5.22085 91.1886 5.43482 90.4207 5.67707 89.6699C5.96073 88.7902 5.47824 87.847 4.59874 87.5633Z" fill="#4F3333"/>
<path d="M13.132 75.3442C12.4937 74.6755 11.4352 74.6506 10.7661 75.2885C10.5949 75.4517 10.4252 75.6178 10.2562 75.7864C9.80421 76.2386 9.35756 76.7166 8.9285 77.2076C8.32043 77.9032 8.39123 78.9603 9.08681 79.5686C9.77304 80.1687 10.848 80.0966 11.4479 79.4103C11.8279 78.9755 12.2234 78.5524 12.6226 78.153C12.7724 78.0031 12.9238 77.8553 13.0761 77.7101C13.745 77.0718 13.7697 76.0128 13.132 75.3442Z" fill="#4F3333"/>
<path d="M8.1009 80.9184C7.31381 80.4346 6.28336 80.6804 5.79908 81.4672C5.34085 82.2125 4.90645 82.9869 4.50745 83.7686C4.08752 84.5918 4.4146 85.5995 5.23799 86.0192C6.05113 86.434 7.07468 86.1007 7.48859 85.2887C7.84707 84.586 8.23761 83.8897 8.64952 83.2202C9.1338 82.4329 8.88799 81.4024 8.1009 80.9184Z" fill="#4F3333"/>
<path d="M18.4032 71.8011C17.9294 71.008 16.9021 70.749 16.1088 71.2228C15.7053 71.4637 15.3021 71.7178 14.9098 71.9781C14.1398 72.4893 13.9296 73.5275 14.4406 74.2975C14.9445 75.057 15.9997 75.2709 16.76 74.7666C17.1085 74.5355 17.4665 74.3097 17.825 74.0958C18.6183 73.6217 18.8773 72.5944 18.4032 71.8011Z" fill="#4F3333"/>
</g>
</svg>
